<svg width="28" height="13" viewBox="0 0 28 13" fill="none" xmlns="http://www.w3.org/2000/svg">
<path opacity="0.2" d="M0.772339 2.66667C0.772339 1.47005 1.74239 0.5 2.93901 0.5H22.6057C23.8023 0.5 24.7723 1.47005 24.7723 2.66667V10.3333C24.7723 11.53 23.8023 12.5 22.6057 12.5H2.939C1.74239 12.5 0.772339 11.53 0.772339 10.3333V2.66667Z" stroke="#021433"/>
<path opacity="0.2" d="M25.9224 4V8C26.7271 7.66122 27.2504 6.87313 27.2504 6C27.2504 5.12687 26.7271 4.33878 25.9224 4Z" fill="#021433"/>
<path d="M2.57227 3.66634C2.57227 2.92996 3.16922 2.33301 3.9056 2.33301H21.4389C22.1753 2.33301 22.7722 2.92996 22.7722 3.66634V9.32967C22.7722 10.0661 22.1753 10.663 21.4389 10.663H3.9056C3.16922 10.663 2.57227 10.0661 2.57227 9.32967V3.66634Z" fill="#021433"/>
</svg>
