<svg width="128" height="23" viewBox="0 0 128 23" fill="none" xmlns="http://www.w3.org/2000/svg">
<path d="M11.6364 23C18.0632 23 23.2728 17.8514 23.2728 11.5V3.45C23.2728 2.535 22.905 1.65748 22.2503 1.01048C21.5956 0.363481 20.7077 0 19.7818 0H12.2182V5.04505C12.2182 6.1962 12.2892 7.38875 12.9001 8.36855C13.3374 9.07074 13.9225 9.67176 14.6156 10.1308C15.3087 10.5899 16.0935 10.8962 16.917 11.0291L17.1398 11.0647C17.2317 11.0958 17.3114 11.1544 17.3679 11.2325C17.4244 11.3105 17.4547 11.4041 17.4547 11.5C17.4547 11.5959 17.4244 11.6895 17.3679 11.7675C17.3114 11.8456 17.2317 11.9042 17.1398 11.9353L16.917 11.9709C15.7139 12.1652 14.6029 12.7279 13.7409 13.5798C12.8789 14.4317 12.3094 15.5297 12.1129 16.7187L12.0768 16.9389C12.0454 17.0297 11.9861 17.1085 11.9071 17.1643C11.8281 17.2201 11.7335 17.2501 11.6364 17.2501C11.5393 17.2501 11.4446 17.2201 11.3657 17.1643C11.2867 17.1085 11.2274 17.0297 11.196 16.9389L11.1599 16.7187C11.0254 15.9049 10.7154 15.1293 10.2509 14.4443C9.78643 13.7594 9.17831 13.1812 8.46781 12.7489C7.47639 12.1452 6.2697 12.075 5.1049 12.075H0.0139915C0.318282 18.1591 5.40512 23 11.6364 23Z" fill="url(#paint0_linear_49_1643)"/>
<path d="M0 10.9251H5.10487C6.26967 10.9251 7.47636 10.8549 8.46778 10.2512C9.24277 9.77926 9.89515 9.13453 10.3727 8.36862C10.9836 7.38882 11.0545 6.19627 11.0545 5.04512V6.94955e-05H3.49091C2.56506 6.94955e-05 1.67714 0.363551 1.02246 1.01055C0.367791 1.65755 0 2.53507 0 3.45007V10.9251Z" fill="url(#paint1_linear_49_1643)"/>
<path d="M123.177 6.95973C126.43 6.95973 128 9.2051 128 11.8058V16.6905H124.596V12.3854C124.596 11.2067 124.161 10.2338 122.913 10.2338C121.665 10.2338 121.249 11.2067 121.249 12.3854V16.6899H117.844V12.3854C117.844 11.2067 117.428 10.2338 116.18 10.2338C114.932 10.2338 114.497 11.2067 114.497 12.3854V16.6899H111.093V11.8053C111.093 9.20453 112.662 6.95915 115.915 6.95915C117.693 6.95915 118.979 7.65145 119.565 8.79283C120.189 7.65145 121.551 6.95973 123.177 6.95973ZM104.976 13.6964C106.072 13.6964 106.545 12.7046 106.545 11.5252V7.33348H109.949V11.9369C109.949 14.6877 108.323 16.9711 104.976 16.9711C101.628 16.9711 100.002 14.6883 100.002 11.9369V7.33348H103.406V11.5252C103.406 12.704 103.878 13.6964 104.976 13.6964ZM94.9963 16.9895C92.8593 16.9895 91.4786 16.2598 90.6652 14.8378L93.124 13.4716C93.4644 14.0702 93.9746 14.3698 94.8258 14.3698C95.5258 14.3698 95.8469 14.1265 95.8469 13.827C95.8469 12.6856 90.8543 13.8459 90.8543 10.216C90.8543 8.45645 92.3671 7.03448 94.9393 7.03448C97.1898 7.03448 98.4191 8.1195 98.9678 9.16773L96.509 10.5523C96.3013 9.99113 95.6578 9.65418 95.0149 9.65418C94.5233 9.65418 94.2586 9.86003 94.2586 10.1406C94.2586 11.301 99.2511 10.2344 99.2511 13.7522C99.2511 15.717 97.3032 16.9895 94.9963 16.9895ZM83.1028 20.9943H79.6986V11.9933C79.6986 9.12978 81.8734 7.05288 84.8994 7.05288C87.8498 7.05288 90.1003 9.27985 90.1003 11.9933C90.1003 14.9873 88.0954 16.9711 85.0885 16.9711C84.3886 16.9711 83.6892 16.7652 83.1028 16.4467V20.9943ZM84.8994 13.8086C85.9775 13.8086 86.6961 12.9852 86.6961 12.0117C86.6961 11.0204 85.9775 10.2154 84.8994 10.2154C83.8213 10.2154 83.1028 11.0204 83.1028 12.0123C83.1028 12.9852 83.8213 13.8086 84.8994 13.8086ZM76.2885 6.34218C75.1726 6.34218 74.2463 5.42505 74.2463 4.32105C74.2463 3.21705 75.1726 2.29993 76.2885 2.29993C77.4044 2.29993 78.3313 3.21705 78.3313 4.32105C78.3313 5.42505 77.4044 6.34218 76.2885 6.34218ZM74.5867 7.33348H77.9909V16.6905H74.5867V7.33348ZM68.0552 16.9711C65.1048 16.9711 62.8543 14.7257 62.8543 11.9933C62.8543 9.27985 65.1048 7.03448 68.0552 7.03448C71.0056 7.03448 73.2561 9.27985 73.2561 11.9933C73.2561 14.7257 71.0056 16.9711 68.0552 16.9711ZM68.0552 13.8086C69.1333 13.8086 69.8519 12.9852 69.8519 12.0117C69.8519 11.0204 69.1333 10.197 68.0552 10.197C66.9771 10.197 66.2586 11.0204 66.2586 12.0117C66.2586 12.9852 66.9771 13.8086 68.0552 13.8086ZM56.4264 21.2749C54.0817 21.2749 52.3793 20.2457 51.5095 18.4114L54.3272 16.9147C54.6298 17.5512 55.197 18.2062 56.3694 18.2062C57.5994 18.2062 58.4122 17.4385 58.507 16.0913C58.0532 16.4846 57.334 16.7836 56.2565 16.7836C53.6273 16.7836 51.5089 14.7815 51.5089 11.9743C51.5089 9.26145 53.7599 7.05288 56.7103 7.05288C59.7364 7.05288 61.9112 9.13035 61.9112 11.9933V15.6986C61.9112 19.0669 59.5467 21.2749 56.4264 21.2749ZM56.6533 13.6217C57.6744 13.6217 58.45 12.9288 58.45 11.8996C58.45 10.8893 57.675 10.2154 56.6533 10.2154C55.6508 10.2154 54.8567 10.8893 54.8567 11.9001C54.8567 12.9294 55.6508 13.6217 56.6533 13.6217ZM45.7349 16.9711C42.7845 16.9711 40.5335 14.7257 40.5335 11.9933C40.5335 9.27985 42.7845 7.03448 45.7349 7.03448C48.6847 7.03448 50.9358 9.27985 50.9358 11.9933C50.9358 14.7257 48.6853 16.9711 45.7349 16.9711ZM45.7349 13.8086C46.813 13.8086 47.5316 12.9852 47.5316 12.0117C47.5316 11.0204 46.813 10.197 45.7349 10.197C44.6568 10.197 43.9383 11.0204 43.9383 12.0117C43.9383 12.9852 44.6568 13.8086 45.7349 13.8086ZM34.3348 4.05943V13.509H39.9708V16.6905H33.8618C31.7061 16.6905 30.8363 15.5675 30.8363 13.7896V4.05943H34.3348Z" fill="#0E1534"/>
<defs>
<linearGradient id="paint0_linear_49_1643" x1="11.6364" y1="0" x2="11.6364" y2="23" gradientUnits="userSpaceOnUse">
<stop stop-color="#6E8AFC"/>
<stop offset="1" stop-color="#375DFB"/>
</linearGradient>
<linearGradient id="paint1_linear_49_1643" x1="11.6364" y1="0" x2="11.6364" y2="23" gradientUnits="userSpaceOnUse">
<stop stop-color="#6E8AFC"/>
<stop offset="1" stop-color="#375DFB"/>
</linearGradient>
</defs>
</svg>
